<?xml version="1.0" encoding="utf-8"?>
<!-- Generator: Adobe Illustrator 23.0.3, SVG Export Plug-In . SVG Version: 6.00 Build 0)  -->
<svg version="1.1" id="Layer_1" xmlns="http://www.w3.org/2000/svg" xmlns:xlink="http://www.w3.org/1999/xlink" x="0px" y="0px"
	 viewBox="0 0 445.18 394.33" style="enable-background:new 0 0 445.18 394.33;" xml:space="preserve">
<style type="text/css">
	.st0{fill:#FFFFFF;}
</style>
<g>
	<polygon class="st0" points="214.32,85.77 250.27,196.4 366.59,196.4 272.48,264.78 308.43,375.41 214.32,307.04 120.21,375.41 
		156.15,264.78 62.04,196.4 178.37,196.4 	"/>
	<path d="M311.28,379.34l-96.96-70.45l-96.97,70.45l37.04-113.99L57.43,194.9h119.86l37.04-113.99l37.04,113.99h119.85l-96.96,70.45
		L311.28,379.34z M214.32,305.18l91.26,66.3l-34.86-107.28l91.26-66.3h-112.8L214.32,90.62L179.46,197.9H66.66l91.26,66.3
		l-34.86,107.28L214.32,305.18z"/>
</g>
<g>
	<polygon class="st0" points="343.22,24.04 362.41,83.11 424.51,83.11 374.27,119.61 393.46,178.67 343.22,142.17 292.98,178.67 
		312.17,119.61 261.93,83.11 324.03,83.11 	"/>
	<path d="M396.32,182.6l-53.1-38.58l-53.1,38.58l20.28-62.42l-53.1-38.58h65.63l20.28-62.42l20.28,62.42h65.63l-53.1,38.58
		L396.32,182.6z M266.54,84.61l47.39,34.43l-18.1,55.71l47.39-34.43l47.39,34.43l-18.1-55.71l47.39-34.43h-58.58l-18.1-55.71
		l-18.1,55.71H266.54z"/>
</g>
<g>
	<polygon class="st0" points="100.51,24.04 119.7,83.11 181.81,83.11 131.56,119.61 150.75,178.67 100.51,142.17 50.27,178.67 
		69.46,119.61 19.22,83.11 81.32,83.11 	"/>
	<path d="M153.61,182.6l-53.1-38.58l-53.1,38.58l20.28-62.42L14.6,81.61h65.63l20.28-62.42l20.28,62.42h65.63l-53.09,38.58
		L153.61,182.6z M100.51,140.32l47.39,34.43l-18.1-55.71l47.39-34.43h-58.58l-18.1-55.71l-18.1,55.71H23.83l47.39,34.43l-18.1,55.71
		L100.51,140.32z"/>
</g>
<g>
	<polygon points="212.82,232.47 212.82,85.77 215.82,85.77 215.82,228.72 366.27,194.94 366.92,197.87 	"/>
</g>
<g>
	<polygon points="307.17,376.23 214.32,233.34 121.46,376.23 118.95,374.6 214.32,227.84 309.69,374.6 	"/>
</g>
<g>
	<rect x="136.68" y="135.46" transform="matrix(0.2191 -0.9757 0.9757 0.2191 -100.4023 301.5527)" width="3" height="156.07"/>
</g>
</svg>
