<?xml version="1.0" encoding="utf-8"?>
<!-- Generator: Adobe Illustrator 23.0.3, SVG Export Plug-In . SVG Version: 6.00 Build 0)  -->
<svg version="1.1" id="Layer_1" xmlns="http://www.w3.org/2000/svg" xmlns:xlink="http://www.w3.org/1999/xlink" x="0px" y="0px"
	 viewBox="0 0 373.78 258.62" style="enable-background:new 0 0 373.78 258.62;" xml:space="preserve">

<g>
	<g>
		<path class="st0" d="M319.4,221.99H53.92c-23.92,0-43.32-19.39-43.32-43.32V53.48c0-23.92,19.39-43.32,43.32-43.32H319.4
			c23.92,0,43.32,19.39,43.32,43.32v125.19C362.71,202.6,343.32,221.99,319.4,221.99z"/>
	</g>
	<g>
		<path d="M343.09,222.9H30.23c-11.32,0-20.53-9.21-20.53-20.53V29.79c0-11.32,9.21-20.53,20.53-20.53h312.86
			c11.32,0,20.53,9.21,20.53,20.53v172.58C363.62,213.69,354.41,222.9,343.09,222.9z M30.23,11.07c-10.32,0-18.72,8.4-18.72,18.72
			v172.58c0,10.32,8.4,18.72,18.72,18.72h312.86c10.32,0,18.72-8.4,18.72-18.72V29.79c0-10.32-8.4-18.72-18.72-18.72H30.23z"/>
	</g>
</g>
<g>
	<g>
		<rect x="34.42" y="45.94" width="145.54" height="4.91"/>
	</g>
</g>
<g>
	<g>
		<rect x="34.42" y="75.4" width="110.82" height="4.91"/>
	</g>
</g>
<g>
	<g>
		<rect x="34.42" y="104.86" width="55.41" height="4.91"/>
	</g>
</g>
<g>
	<g>
		<rect x="34.42" y="175.09" width="110.82" height="4.91"/>
	</g>
</g>
<g>
	<polygon class="st0" points="294.47,251.45 269.92,239.18 245.38,251.45 245.38,153.96 294.47,153.96 	"/>
</g>
<g>
	<path d="M294.93,252.19l-25-12.5l-25,12.5V153.5h50.01V252.19z M269.92,238.67l24.1,12.05v-96.31h-48.19v96.31L269.92,238.67z"/>
	<path d="M295.38,252.92l-25.46-12.73l-25.46,12.73v-99.87h50.91V252.92z M245.37,251.45l24.55-12.27l24.55,12.27v-97.5v97.5
		l-24.55-12.27L245.37,251.45z M246.28,154.86v95.12l23.64-11.82l23.64,11.82v-95.12H246.28z"/>
</g>
<g>
	<polygon class="st1" points="334.15,178.29 294.34,178.71 269.85,210.09 244.7,179.23 204.9,179.65 213.35,140.75 188.2,109.89 
		223.88,92.24 232.33,53.34 268.38,70.23 304.06,52.59 313.33,91.3 349.37,108.2 324.88,139.58 	"/>
</g>
<g>
	<path d="M269.85,210.82l-25.37-31.13l-40.16,0.42l8.53-39.24l-25.37-31.13l36-17.8l8.53-39.24l36.36,17.04l36-17.8l9.35,39.06
		l36.36,17.04l-24.71,31.66l9.35,39.06l-40.16,0.42L269.85,210.82z M244.91,178.78l0.14,0.17l24.79,30.42l24.28-31.11l39.46-0.41
		l-9.18-38.38l0.13-0.17l24.14-30.93l-35.73-16.75l-9.18-38.38l-35.37,17.49l-35.73-16.75l-8.38,38.56l-35.37,17.49l24.92,30.59
		l-0.05,0.21l-8.33,38.35L244.91,178.78z"/>
	<path d="M269.86,211.55l-25.59-31.4l-40.51,0.42l8.6-39.59l-25.59-31.4l36.31-17.96l8.6-39.58l36.68,17.19l36.31-17.96l9.43,39.4
		l36.68,17.19l-24.92,31.93l9.43,39.4l-40.51,0.43L269.86,211.55z M248.15,183.46l21.7,26.63v0L248.15,183.46z M245.13,178.32
		l24.7,30.32l24.06-30.83L333,177.4l-9.1-38.04l0.27-0.34l23.79-30.49l-35.41-16.6l-9.1-38.03l-35.06,17.34l-35.41-16.6l-8.3,38.22
		l-35.06,17.34l24.7,30.32l-0.09,0.43l-8.21,37.79L245.13,178.32z M294.34,178.71l-19.83,25.41L294.34,178.71l39.81-0.42
		l-9.26-38.72l0.13-0.17l17.79-22.8l-17.93,22.97l9.26,38.72L294.34,178.71z M204.9,179.65l18.18-0.19L204.9,179.65z M213.35,140.75
		l-0.58,2.67L213.35,140.75L213.35,140.75z M188.2,109.89l7.94,9.75L188.2,109.89z M227.32,76.41l-3.44,15.83l-23.17,11.46
		l23.17-11.46L227.32,76.41z M313.33,91.3l3.34,1.56L313.33,91.3z M268.38,70.23l15.17-7.5L268.38,70.23z"/>
</g>
<g>
	<g>
		<g>
			<path d="M251.85,144.46c3.21,2.1,8.9,4.33,14.34,4.33c7.91,0,11.62-3.96,11.62-8.9c0-5.19-3.09-8.04-11.13-11
				c-10.76-3.83-15.83-9.77-15.83-16.94c0-9.64,7.79-17.56,20.65-17.56c6.06,0,11.38,1.73,14.71,3.71L283.5,106
				c-2.35-1.48-6.68-3.46-12.24-3.46c-6.43,0-10.01,3.71-10.01,8.16c0,4.95,3.59,7.17,11.38,10.14c10.39,3.96,15.7,9.15,15.7,18.05
				c0,10.51-8.16,17.93-22.38,17.93c-6.55,0-12.61-1.61-16.82-4.08L251.85,144.46z"/>
		</g>
	</g>
</g>
</svg>
