<?xml version="1.0" encoding="utf-8"?>
<!-- Generator: Adobe Illustrator 23.0.3, SVG Export Plug-In . SVG Version: 6.00 Build 0)  -->
<svg version="1.1" id="Layer_1" xmlns="http://www.w3.org/2000/svg" xmlns:xlink="http://www.w3.org/1999/xlink" x="0px" y="0px"
	 viewBox="0 0 271.28 271.48" style="enable-background:new 0 0 271.28 271.48;" xml:space="preserve">
<style type="text/css">
	.st0{fill:#FFFFFF;}
</style>
<g>
	<g>
		<path class="st0" d="M127.85,8.89c-45.75,0-82.84,13.61-82.84,30.4V202.9c0,16.79,37.09,30.4,82.84,30.4
			c45.75,0,82.84-13.61,82.84-30.4V39.29C210.69,22.5,173.6,8.89,127.85,8.89z"/>
		<path d="M127.85,234.8c-47.29,0-84.34-14.01-84.34-31.9V39.29c0-17.89,37.05-31.9,84.34-31.9s84.34,14.01,84.34,31.9V202.9
			C212.19,220.78,175.15,234.8,127.85,234.8z M127.85,10.39c-44.09,0-81.34,13.23-81.34,28.9V202.9c0,15.67,37.25,28.9,81.34,28.9
			s81.34-13.23,81.34-28.9V39.29C209.19,23.62,171.94,10.39,127.85,10.39z"/>
	</g>
	<g>
		<path d="M127.85,80.03v-3c44.09,0,81.34-13.23,81.34-28.9h3C212.19,66.02,175.15,80.03,127.85,80.03z"/>
	</g>
	<g>
		<path d="M127.85,103.01v-3c44.09,0,81.34-13.23,81.34-28.9h3C212.19,89,175.15,103.01,127.85,103.01z"/>
	</g>
	<g>
		<path d="M127.85,125.98v-3c44.09,0,81.34-13.23,81.34-28.9h3C212.19,111.97,175.15,125.98,127.85,125.98z"/>
	</g>
	<g>
		<path d="M127.85,148.96v-3c44.09,0,81.34-13.23,81.34-28.9h3C212.19,134.95,175.15,148.96,127.85,148.96z"/>
	</g>
	<g>
		<path d="M127.85,171.94v-3c44.09,0,81.34-13.23,81.34-28.9h3C212.19,157.92,175.15,171.94,127.85,171.94z"/>
	</g>
	<g>
		<path d="M127.85,194.91v-3c44.09,0,81.34-13.23,81.34-28.9h3C212.19,180.9,175.15,194.91,127.85,194.91z"/>
	</g>
	<g>
		<path d="M127.85,217.89v-3c44.09,0,81.34-13.23,81.34-28.9h3C212.19,203.88,175.15,217.89,127.85,217.89z"/>
	</g>
</g>
<g>
	<g>
		<path class="st0" d="M59.53,116.01c-22.18,0-40.17,8.89-40.17,19.86v106.87c0,10.97,17.98,19.86,40.17,19.86
			c22.18,0,40.17-8.89,40.17-19.86V135.87C99.69,124.9,81.71,116.01,59.53,116.01z"/>
		<path d="M59.53,264.1c-23.36,0-41.67-9.38-41.67-21.36V135.87c0-11.98,18.3-21.36,41.67-21.36s41.67,9.38,41.67,21.36v106.87
			C101.19,254.72,82.89,264.1,59.53,264.1z M59.53,117.51c-20.96,0-38.67,8.41-38.67,18.36v106.87c0,9.95,17.71,18.36,38.67,18.36
			c20.96,0,38.67-8.41,38.67-18.36V135.87C98.19,125.92,80.49,117.51,59.53,117.51z"/>
	</g>
	<g>
		<path d="M59.53,163.01v-3c20.96,0,38.67-8.41,38.67-18.36h3C101.19,153.62,82.89,163.01,59.53,163.01z"/>
	</g>
	<g>
		<path d="M59.53,178.01v-3c20.96,0,38.67-8.41,38.67-18.36h3C101.19,168.63,82.89,178.01,59.53,178.01z"/>
	</g>
	<g>
		<path d="M59.53,193.02v-3c20.96,0,38.67-8.41,38.67-18.36h3C101.19,183.64,82.89,193.02,59.53,193.02z"/>
	</g>
	<g>
		<path d="M59.53,208.03v-3c20.96,0,38.67-8.41,38.67-18.36h3C101.19,198.65,82.89,208.03,59.53,208.03z"/>
	</g>
	<g>
		<path d="M59.53,223.04v-3c20.96,0,38.67-8.41,38.67-18.36h3C101.19,213.66,82.89,223.04,59.53,223.04z"/>
	</g>
	<g>
		<path d="M59.53,238.05v-3c20.96,0,38.67-8.41,38.67-18.36h3C101.19,228.67,82.89,238.05,59.53,238.05z"/>
	</g>
	<g>
		<path d="M59.53,253.05v-3c20.96,0,38.67-8.41,38.67-18.36h3C101.19,243.67,82.89,253.05,59.53,253.05z"/>
	</g>
</g>
<g>
	<g>
		<path class="st0" d="M221.24,181.03c-22.18,0-40.17,8.89-40.17,19.86v36.87c0,10.97,17.98,19.86,40.17,19.86
			c22.18,0,40.17-8.89,40.17-19.86v-36.87C261.41,189.92,243.43,181.03,221.24,181.03z"/>
		<path d="M221.24,259.12c-23.36,0-41.67-9.38-41.67-21.36v-36.87c0-11.98,18.3-21.36,41.67-21.36s41.67,9.38,41.67,21.36v36.87
			C262.91,249.74,244.61,259.12,221.24,259.12z M221.24,182.53c-20.96,0-38.67,8.41-38.67,18.36v36.87
			c0,9.95,17.71,18.36,38.67,18.36c20.96,0,38.67-8.41,38.67-18.36v-36.87C259.91,190.94,242.2,182.53,221.24,182.53z"/>
	</g>
	<g>
		<path d="M221.24,228.02v-3c20.96,0,38.67-8.41,38.67-18.36h3C262.91,218.64,244.61,228.02,221.24,228.02z"/>
	</g>
	<g>
		<path d="M221.24,243.03v-3c20.96,0,38.67-8.41,38.67-18.36h3C262.91,233.65,244.61,243.03,221.24,243.03z"/>
	</g>
</g>
</svg>
